<mxfile host="app.diagrams.net" modified="2021-07-21T01:18:10.912Z" agent="5.0 (Windows NT 10.0; Win64; x64) AppleWebKit/537.36 (KHTML, like Gecko) Chrome/91.0.4472.124 Safari/537.36 Edg/91.0.864.70" etag="7QaYvn6u-QI7rE0ymzT7" version="14.8.6" type="github">
  <diagram id="2CiTbUa7etaD9i_m3gvz" name="第 1 页">
    <mxGraphModel dx="4448" dy="1013" grid="1" gridSize="10" guides="1" tooltips="1" connect="1" arrows="1" fold="1" page="1" pageScale="1" pageWidth="2339" pageHeight="3300" math="0" shadow="0">
      <root>
        <mxCell id="0" />
        <mxCell id="1" parent="0" />
        <mxCell id="E80B06qXSftUXkVDKqzm-15" style="edgeStyle=orthogonalEdgeStyle;rounded=0;orthogonalLoop=1;jettySize=auto;html=1;exitX=0.5;exitY=1;exitDx=0;exitDy=0;" edge="1" parent="1" source="E80B06qXSftUXkVDKqzm-1" target="E80B06qXSftUXkVDKqzm-4">
          <mxGeometry relative="1" as="geometry" />
        </mxCell>
        <mxCell id="E80B06qXSftUXkVDKqzm-1" value="THREAD_CreateThreadsAndStart" style="rounded=0;whiteSpace=wrap;html=1;fillColor=#fff2cc;strokeColor=#d6b656;" vertex="1" parent="1">
          <mxGeometry x="-20" y="310" width="220" height="60" as="geometry" />
        </mxCell>
        <mxCell id="E80B06qXSftUXkVDKqzm-13" style="edgeStyle=orthogonalEdgeStyle;rounded=0;orthogonalLoop=1;jettySize=auto;html=1;exitX=1;exitY=0.5;exitDx=0;exitDy=0;entryX=0;entryY=0.5;entryDx=0;entryDy=0;" edge="1" parent="1" source="E80B06qXSftUXkVDKqzm-2" target="E80B06qXSftUXkVDKqzm-3">
          <mxGeometry relative="1" as="geometry" />
        </mxCell>
        <mxCell id="E80B06qXSftUXkVDKqzm-14" style="edgeStyle=orthogonalEdgeStyle;rounded=0;orthogonalLoop=1;jettySize=auto;html=1;exitX=0.5;exitY=1;exitDx=0;exitDy=0;entryX=0.5;entryY=0;entryDx=0;entryDy=0;" edge="1" parent="1" source="E80B06qXSftUXkVDKqzm-2" target="E80B06qXSftUXkVDKqzm-1">
          <mxGeometry relative="1" as="geometry" />
        </mxCell>
        <mxCell id="E80B06qXSftUXkVDKqzm-2" value="THREAD_Init" style="rounded=0;whiteSpace=wrap;html=1;fillColor=#fff2cc;strokeColor=#d6b656;" vertex="1" parent="1">
          <mxGeometry x="30" y="190" width="120" height="50" as="geometry" />
        </mxCell>
        <mxCell id="E80B06qXSftUXkVDKqzm-3" value="Flow_InitModule" style="rounded=0;whiteSpace=wrap;html=1;fillColor=#fff2cc;strokeColor=#d6b656;" vertex="1" parent="1">
          <mxGeometry x="240" y="185" width="120" height="60" as="geometry" />
        </mxCell>
        <mxCell id="E80B06qXSftUXkVDKqzm-16" style="edgeStyle=orthogonalEdgeStyle;rounded=0;orthogonalLoop=1;jettySize=auto;html=1;exitX=0.5;exitY=1;exitDx=0;exitDy=0;" edge="1" parent="1" source="E80B06qXSftUXkVDKqzm-4" target="E80B06qXSftUXkVDKqzm-5">
          <mxGeometry relative="1" as="geometry" />
        </mxCell>
        <mxCell id="E80B06qXSftUXkVDKqzm-4" value="THREAD_MainLoop" style="rounded=0;whiteSpace=wrap;html=1;fillColor=#fff2cc;strokeColor=#d6b656;" vertex="1" parent="1">
          <mxGeometry x="30" y="430" width="120" height="60" as="geometry" />
        </mxCell>
        <mxCell id="E80B06qXSftUXkVDKqzm-17" style="edgeStyle=orthogonalEdgeStyle;rounded=0;orthogonalLoop=1;jettySize=auto;html=1;exitX=0.5;exitY=1;exitDx=0;exitDy=0;" edge="1" parent="1" source="E80B06qXSftUXkVDKqzm-5" target="E80B06qXSftUXkVDKqzm-6">
          <mxGeometry relative="1" as="geometry" />
        </mxCell>
        <mxCell id="E80B06qXSftUXkVDKqzm-26" style="edgeStyle=orthogonalEdgeStyle;rounded=0;orthogonalLoop=1;jettySize=auto;html=1;exitX=1;exitY=0.5;exitDx=0;exitDy=0;entryX=0;entryY=0.5;entryDx=0;entryDy=0;" edge="1" parent="1" source="E80B06qXSftUXkVDKqzm-5" target="E80B06qXSftUXkVDKqzm-25">
          <mxGeometry relative="1" as="geometry" />
        </mxCell>
        <mxCell id="E80B06qXSftUXkVDKqzm-5" value="WorkThread_Process" style="rounded=0;whiteSpace=wrap;html=1;fillColor=#fff2cc;strokeColor=#d6b656;" vertex="1" parent="1">
          <mxGeometry x="30" y="550" width="120" height="60" as="geometry" />
        </mxCell>
        <mxCell id="E80B06qXSftUXkVDKqzm-18" style="edgeStyle=orthogonalEdgeStyle;rounded=0;orthogonalLoop=1;jettySize=auto;html=1;exitX=0.5;exitY=1;exitDx=0;exitDy=0;entryX=0.5;entryY=0;entryDx=0;entryDy=0;" edge="1" parent="1" source="E80B06qXSftUXkVDKqzm-6" target="E80B06qXSftUXkVDKqzm-7">
          <mxGeometry relative="1" as="geometry" />
        </mxCell>
        <mxCell id="E80B06qXSftUXkVDKqzm-6" value="Flow_LcoreInit" style="rounded=0;whiteSpace=wrap;html=1;fillColor=#fff2cc;strokeColor=#d6b656;" vertex="1" parent="1">
          <mxGeometry x="30" y="660" width="120" height="60" as="geometry" />
        </mxCell>
        <mxCell id="E80B06qXSftUXkVDKqzm-19" style="edgeStyle=orthogonalEdgeStyle;rounded=0;orthogonalLoop=1;jettySize=auto;html=1;exitX=0.5;exitY=1;exitDx=0;exitDy=0;" edge="1" parent="1" source="E80B06qXSftUXkVDKqzm-7" target="E80B06qXSftUXkVDKqzm-8">
          <mxGeometry relative="1" as="geometry" />
        </mxCell>
        <mxCell id="E80B06qXSftUXkVDKqzm-7" value="THREAD_InitOK" style="rounded=0;whiteSpace=wrap;html=1;fillColor=#fff2cc;strokeColor=#d6b656;" vertex="1" parent="1">
          <mxGeometry x="30" y="760" width="120" height="60" as="geometry" />
        </mxCell>
        <mxCell id="E80B06qXSftUXkVDKqzm-23" style="edgeStyle=orthogonalEdgeStyle;rounded=0;orthogonalLoop=1;jettySize=auto;html=1;exitX=0.5;exitY=1;exitDx=0;exitDy=0;entryX=0;entryY=0.5;entryDx=0;entryDy=0;" edge="1" parent="1" source="E80B06qXSftUXkVDKqzm-8" target="E80B06qXSftUXkVDKqzm-5">
          <mxGeometry relative="1" as="geometry">
            <Array as="points">
              <mxPoint x="90" y="940" />
              <mxPoint x="-10" y="940" />
              <mxPoint x="-10" y="580" />
            </Array>
          </mxGeometry>
        </mxCell>
        <mxCell id="E80B06qXSftUXkVDKqzm-8" value="Flow_InitModuleOK" style="rounded=0;whiteSpace=wrap;html=1;fillColor=#fff2cc;strokeColor=#d6b656;" vertex="1" parent="1">
          <mxGeometry x="30" y="860" width="120" height="60" as="geometry" />
        </mxCell>
        <mxCell id="E80B06qXSftUXkVDKqzm-33" style="edgeStyle=orthogonalEdgeStyle;rounded=0;orthogonalLoop=1;jettySize=auto;html=1;exitX=1;exitY=0.5;exitDx=0;exitDy=0;entryX=0.5;entryY=0;entryDx=0;entryDy=0;" edge="1" parent="1" source="E80B06qXSftUXkVDKqzm-9" target="E80B06qXSftUXkVDKqzm-27">
          <mxGeometry relative="1" as="geometry">
            <Array as="points">
              <mxPoint x="770" y="700" />
              <mxPoint x="770" y="510" />
              <mxPoint x="640" y="510" />
            </Array>
          </mxGeometry>
        </mxCell>
        <mxCell id="E80B06qXSftUXkVDKqzm-9" value="Flow_CPLoopCallback" style="rounded=0;whiteSpace=wrap;html=1;fillColor=#fff2cc;strokeColor=#d6b656;" vertex="1" parent="1">
          <mxGeometry x="580" y="670" width="120" height="60" as="geometry" />
        </mxCell>
        <mxCell id="E80B06qXSftUXkVDKqzm-12" style="edgeStyle=orthogonalEdgeStyle;rounded=0;orthogonalLoop=1;jettySize=auto;html=1;exitX=0.5;exitY=1;exitDx=0;exitDy=0;entryX=0.5;entryY=0;entryDx=0;entryDy=0;" edge="1" parent="1" source="E80B06qXSftUXkVDKqzm-10" target="E80B06qXSftUXkVDKqzm-2">
          <mxGeometry relative="1" as="geometry" />
        </mxCell>
        <mxCell id="E80B06qXSftUXkVDKqzm-10" value="Main" style="rounded=0;whiteSpace=wrap;html=1;fillColor=#fff2cc;strokeColor=#d6b656;" vertex="1" parent="1">
          <mxGeometry x="30" y="60" width="120" height="60" as="geometry" />
        </mxCell>
        <mxCell id="E80B06qXSftUXkVDKqzm-28" style="edgeStyle=orthogonalEdgeStyle;rounded=0;orthogonalLoop=1;jettySize=auto;html=1;exitX=1;exitY=0.5;exitDx=0;exitDy=0;" edge="1" parent="1" source="E80B06qXSftUXkVDKqzm-25" target="E80B06qXSftUXkVDKqzm-27">
          <mxGeometry relative="1" as="geometry" />
        </mxCell>
        <mxCell id="E80B06qXSftUXkVDKqzm-25" value="__WorkThread_ProcessNormalPacket" style="rounded=0;whiteSpace=wrap;html=1;fillColor=#fff2cc;strokeColor=#d6b656;" vertex="1" parent="1">
          <mxGeometry x="240" y="550" width="230" height="60" as="geometry" />
        </mxCell>
        <mxCell id="E80B06qXSftUXkVDKqzm-32" style="edgeStyle=orthogonalEdgeStyle;curved=1;rounded=0;orthogonalLoop=1;jettySize=auto;html=1;exitX=0.5;exitY=1;exitDx=0;exitDy=0;" edge="1" parent="1" source="E80B06qXSftUXkVDKqzm-27" target="E80B06qXSftUXkVDKqzm-9">
          <mxGeometry relative="1" as="geometry" />
        </mxCell>
        <mxCell id="E80B06qXSftUXkVDKqzm-27" value="Flow_ProcessPacket" style="rounded=0;whiteSpace=wrap;html=1;fillColor=#fff2cc;strokeColor=#d6b656;" vertex="1" parent="1">
          <mxGeometry x="580" y="550" width="120" height="60" as="geometry" />
        </mxCell>
      </root>
    </mxGraphModel>
  </diagram>
</mxfile>
